<svg version="1.1" viewBox="0.0 0.0 960.0 720.0" fill="none" stroke="none" stroke-linecap="square" stroke-miterlimit="10" xmlns:xlink="http://www.w3.org/1999/xlink" xmlns="http://www.w3.org/2000/svg"><clipPath id="p.0"><path d="m0 0l960.0 0l0 720.0l-960.0 0l0 -720.0z" clip-rule="nonzero"/></clipPath><g clip-path="url(#p.0)"><path fill="#000000" fill-opacity="0.0" d="m0 0l960.0 0l0 720.0l-960.0 0z" fill-rule="evenodd"/><path fill="#000000" fill-opacity="0.0" d="m333.62204 263.99475l0 0c0 -81.79903 68.891754 -148.11023 153.87402 -148.11023l0 0c40.809906 0 79.948395 15.6044235 108.80539 43.380486c28.856934 27.776062 45.068604 65.44847 45.068604 104.72975l0 0c0 81.79901 -68.89172 148.11023 -153.874 148.11023l0 0c-84.98227 0 -153.87402 -66.31122 -153.87402 -148.11023z" fill-rule="evenodd"/><path stroke="#160e36" stroke-width="1.0" stroke-linejoin="round" stroke-linecap="butt" d="m333.62204 263.99475l0 0c0 -81.79903 68.891754 -148.11023 153.87402 -148.11023l0 0c40.809906 0 79.948395 15.6044235 108.80539 43.380486c28.856934 27.776062 45.068604 65.44847 45.068604 104.72975l0 0c0 81.79901 -68.89172 148.11023 -153.874 148.11023l0 0c-84.98227 0 -153.87402 -66.31122 -153.87402 -148.11023z" fill-rule="evenodd"/><path fill="#000000" fill-opacity="0.0" d="m245.5748 395.9265l0 0c0 -81.79904 68.891754 -148.11024 153.87402 -148.11024l0 0c40.809937 0 79.948395 15.604416 108.80536 43.380478c28.856964 27.776062 45.068634 65.44849 45.068634 104.72977l0 0c0 81.79901 -68.89172 148.11023 -153.874 148.11023l0 0c-84.98227 0 -153.87402 -66.31122 -153.87402 -148.11023z" fill-rule="evenodd"/><path stroke="#ef4023" stroke-width="1.0" stroke-linejoin="round" stroke-linecap="butt" d="m245.5748 395.9265l0 0c0 -81.79904 68.891754 -148.11024 153.87402 -148.11024l0 0c40.809937 0 79.948395 15.604416 108.80536 43.380478c28.856964 27.776062 45.068634 65.44849 45.068634 104.72977l0 0c0 81.79901 -68.89172 148.11023 -153.874 148.11023l0 0c-84.98227 0 -153.87402 -66.31122 -153.87402 -148.11023z" fill-rule="evenodd"/><path fill="#000000" fill-opacity="0.0" d="m424.5013 395.9265l0 0c0 -81.79904 68.891754 -148.11024 153.874 -148.11024l0 0c40.809937 0 79.948425 15.604416 108.80536 43.380478c28.856995 27.776062 45.068665 65.44849 45.068665 104.72977l0 0c0 81.79901 -68.89172 148.11023 -153.87402 148.11023l0 0c-84.98224 0 -153.874 -66.31122 -153.874 -148.11023z" fill-rule="evenodd"/><path stroke="#00827d" stroke-width="1.0" stroke-linejoin="round" stroke-linecap="butt" d="m424.5013 395.9265l0 0c0 -81.79904 68.891754 -148.11024 153.874 -148.11024l0 0c40.809937 0 79.948425 15.604416 108.80536 43.380478c28.856995 27.776062 45.068665 65.44849 45.068665 104.72977l0 0c0 81.79901 -68.89172 148.11023 -153.87402 148.11023l0 0c-84.98224 0 -153.874 -66.31122 -153.874 -148.11023z" fill-rule="evenodd"/><path fill="#000000" fill-opacity="0.0" d="m283.97638 390.91864l130.74014 0l0 67.87402l-130.74014 0z" fill-rule="evenodd"/><path fill="#ef4023" d="m295.47638 420.86737q-0.765625 0 -1.328125 -0.28125q-0.34375 -0.1875 -0.34375 -0.4375q0 -0.265625 0.125 -0.421875q0.140625 -0.15625 0.375 -0.15625q0.203125 0 0.609375 0.171875q0.453125 0.171875 0.5625 0.171875q0.40625 0 0.734375 -0.34375q0.328125 -0.359375 0.515625 -0.9375q0.390625 -1.078125 0.390625 -1.921875q0 -0.921875 -0.296875 -1.9375q-0.28125 -1.015625 -0.765625 -1.96875l-0.34375 -0.6875q-0.53125 -1.0625 -0.828125 -1.671875q-0.28125 -0.625 -0.5 -1.34375q-0.3125 -1.03125 -0.3125 -1.984375q0 -0.78125 0.265625 -1.453125q0.265625 -0.6875 0.796875 -1.15625q0.53125 -0.515625 1.3125 -0.515625q0.390625 0 0.75 0.234375q0.359375 0.21875 0.515625 0.5625l-0.359375 0.4375q-0.5625 0 -0.828125 -0.203125q-0.390625 0.046875 -0.6875 0.375q-0.28125 0.328125 -0.421875 0.75q-0.140625 0.40625 -0.140625 0.8125q0 0.8125 0.21875 1.65625q0.234375 0.84375 0.59375 1.59375l1.5 2.984375q0.359375 0.765625 0.5625 1.734375q0.21875 0.953125 0.21875 1.90625q0 1.40625 -0.671875 2.640625q-0.375 0.640625 -0.953125 1.015625q-0.5625 0.375 -1.265625 0.375zm6.54776 -0.8125l-0.03125 -0.828125q-0.015625 -0.359375 -0.015625 -0.8125l0.015625 -0.71875q-0.0625 -0.234375 -0.328125 -4.671875q-0.25 -4.4375 -0.28125 -5.703125q-1.234375 -0.03125 -1.578125 -0.25q-0.234375 -0.171875 -0.234375 -0.390625q0 -0.171875 0.21875 -0.296875q0.21875 -0.140625 0.453125 -0.140625q0.609375 0 1.453125 0.078125q0.8125 0.109375 1.453125 0.109375l0.171875 0l0.171875 0q0.65625 0 0.65625 0.515625q0 0.25 -0.21875 0.421875q-0.203125 0.15625 -0.484375 0.15625q-0.1875 0 -0.546875 -0.078125l-0.4375 -0.078125l-0.015625 0.109375l-0.015625 0.109375q0 1.890625 0.359375 6.046875q0.34375 3.90625 0.34375 6.0625q0 0.25 -0.234375 0.453125q-0.21875 0.1875 -0.5 0.1875l-0.375 -0.28125zm8.460022 0.53125q-0.484375 0 -0.71875 -0.15625q-0.234375 -0.140625 -0.234375 -0.546875q0 -0.640625 -0.21875 -2.171875l-0.078125 -0.453125l-2.109375 -0.3125q-0.140625 0.484375 -0.375 1.984375q-0.125 1.046875 -0.40625 1.390625q-0.140625 0.1875 -0.421875 0.1875q-0.25 0 -0.46875 -0.15625q-0.21875 -0.171875 -0.21875 -0.40625l0.046875 -0.09375l0.015625 -0.09375q1.421875 -5.484375 2.140625 -10.8125q0 -0.078125 0.015625 -0.28125q0.03125 -0.203125 0.046875 -0.59375q0.0625 -0.78125 0.140625 -1.25q0.078125 -0.484375 0.25 -0.71875l0.71875 0q0.296875 0 0.5 0.140625q0.21875 0.140625 0.21875 0.40625q0 1.609375 0.453125 4.8125q0.421875 3.28125 0.421875 4.609375q0 0.125 0.109375 0.65625q0.109375 0.5 0.109375 0.640625q0 0.15625 0.21875 1.28125q0.1875 1.03125 0.1875 1.328125l0 0.015625q0 0.46875 -0.34375 0.59375zm-1.40625 -4.09375q-0.0625 -0.3125 -0.0625 -0.78125q0 -1.921875 -0.34375 -4.90625l-0.21875 -2.21875q-0.90625 5.015625 -1.25 7.5625q0.3125 0.21875 1.875 0.34375zm9.408386 3.96875q-0.25 0 -0.390625 -0.140625q-0.125 -0.140625 -0.1875 -0.46875l-0.125 -0.40625l0 -0.046875l0 -0.0625q0 -0.703125 -1.46875 -4.796875q-1.453125 -4.09375 -2.28125 -6.0625l0 10.734375l0.078125 0.140625q0.015625 0.046875 0.078125 0.15625q0.078125 0.09375 0.078125 0.203125q0 0.28125 -0.203125 0.484375q-0.1875 0.1875 -0.46875 0.1875q-0.671875 0 -0.671875 -1.3125l-0.03125 -3.640625q-0.015625 -1.640625 -0.015625 -3.671875q0 -0.6875 0.0625 -1.984375q0.0625 -1.34375 0.0625 -1.984375q0 -1.0 0.765625 -1.578125l0 0.125q0.125 -0.03125 0.171875 -0.03125q0.5 0 1.234375 1.703125q0.609375 1.359375 1.078125 2.875q0.484375 1.515625 1.265625 4.3125l0.21875 0.765625q0.5 1.734375 0.75 2.46875q0.421875 -4.578125 0.421875 -10.828125l0 -0.28125q-0.015625 -0.125 -0.015625 -0.265625q0 -0.640625 0.515625 -0.640625q0.296875 0 0.453125 0.234375q0.15625 0.234375 0.15625 0.59375l0 1.59375q-0.046875 3.28125 -0.265625 7.125q-0.203125 3.84375 -0.5 4.328125q-0.625 0.171875 -0.765625 0.171875zm5.075592 0.0625q-0.5625 0 -0.5625 -2.796875l0.046875 -3.359375q0.03125 -1.5 0.03125 -3.359375q0 -0.671875 -0.140625 -2.109375q-0.09375 -1.546875 -0.09375 -1.890625q0 -0.28125 0.234375 -0.484375q0.234375 -0.21875 0.5 -0.21875q0.75 0 1.4375 0.328125q0.703125 0.328125 1.234375 0.921875q1.125 1.3125 1.484375 2.859375q0.203125 0.796875 0.203125 1.5625q0 0.28125 -0.03125 0.515625l-0.015625 0.5625l0 1.1875q0 1.359375 -0.078125 2.140625q-0.140625 1.078125 -0.5 1.90625q-0.421875 0.890625 -1.234375 1.59375q-0.390625 0.328125 -0.984375 0.640625l-1.53125 0zm0.9375 -1.078125q0.421875 0 0.78125 -0.21875q0.375 -0.234375 0.625 -0.625q0.21875 -0.34375 0.390625 -0.859375q0.1875 -0.515625 0.265625 -1.015625q0.203125 -0.953125 0.234375 -1.953125q0.03125 -0.265625 0.03125 -0.75q0 -6.4375 -2.5 -6.71875q-0.140625 0.953125 -0.140625 2.21875q0 1.34375 0.15625 4.6875q0.15625 2.96875 0.15625 4.71875l0 0.515625zm9.957672 1.140625q-0.484375 0 -0.71875 -0.15625q-0.234375 -0.140625 -0.234375 -0.546875q0 -0.640625 -0.21875 -2.171875l-0.078125 -0.453125l-2.109375 -0.3125q-0.140625 0.484375 -0.375 1.984375q-0.125 1.046875 -0.40625 1.390625q-0.140625 0.1875 -0.421875 0.1875q-0.25 0 -0.46875 -0.15625q-0.21875 -0.171875 -0.21875 -0.40625l0.046875 -0.09375l0.015625 -0.09375q1.421875 -5.484375 2.140625 -10.8125q0 -0.078125 0.015625 -0.28125q0.03125 -0.203125 0.046875 -0.59375q0.0625 -0.78125 0.140625 -1.25q0.078125 -0.484375 0.25 -0.71875l0.71875 0q0.296875 0 0.5 0.140625q0.21875 0.140625 0.21875 0.40625q0 1.609375 0.453125 4.8125q0.421875 3.28125 0.421875 4.609375q0 0.125 0.109375 0.65625q0.109375 0.5 0.109375 0.640625q0 0.15625 0.21875 1.28125q0.1875 1.03125 0.1875 1.328125l0 0.015625q0 0.46875 -0.34375 0.59375zm-1.40625 -4.09375q-0.0625 -0.3125 -0.0625 -0.78125q0 -1.921875 -0.34375 -4.90625l-0.21875 -2.21875q-0.90625 5.015625 -1.25 7.5625q0.3125 0.21875 1.875 0.34375zm7.314636 4.265625q-0.46875 0 -0.84375 -1.015625q-0.453125 -1.109375 -0.671875 -2.28125l-0.140625 -0.734375q-0.625 -3.046875 -0.796875 -3.46875l-0.25 0q0 0.609375 -0.03125 1.125l0 1.171875q0 2.859375 0.40625 4.453125l-0.234375 0.578125l-0.59375 0l-0.28125 -0.3125l0.03125 -1.4375q0 -1.90625 -0.203125 -5.8125q-0.15625 -4.15625 -0.15625 -5.828125q0 -1.015625 0.703125 -1.015625q1.140625 0 1.875 0.59375q0.734375 0.59375 0.734375 1.65625l0 1.5q0 0.3125 -0.109375 0.734375q-0.09375 0.40625 -0.21875 0.671875l-0.40625 0.765625l-0.34375 0.640625l0.109375 0.515625l0.296875 1.515625q0.296875 1.640625 0.5625 2.671875q0.28125 1.015625 0.6875 1.84375l0.140625 0.25q0.203125 0.4375 0.203125 0.6875q0 0.21875 -0.125 0.375q-0.125 0.15625 -0.34375 0.15625zm-2.625 -8.546875q0.46875 -0.234375 0.796875 -1.28125q0.34375 -1.0625 0.34375 -1.96875q0 -0.671875 -0.171875 -1.28125q-0.109375 -0.328125 -0.359375 -0.515625q-0.25 -0.1875 -0.609375 -0.1875l-0.03125 0.109375l-0.046875 0.203125l0.046875 2.515625q0.03125 1.109375 0.03125 2.40625zm5.8699646 8.3125q-0.5625 0 -0.5625 -2.796875l0.046875 -3.359375q0.03125 -1.5 0.03125 -3.359375q0 -0.671875 -0.140625 -2.109375q-0.09375 -1.546875 -0.09375 -1.890625q0 -0.28125 0.234375 -0.484375q0.234375 -0.21875 0.5 -0.21875q0.75 0 1.4375 0.328125q0.703125 0.328125 1.234375 0.921875q1.125 1.3125 1.484375 2.859375q0.203125 0.796875 0.203125 1.5625q0 0.28125 -0.03125 0.515625l-0.015625 0.5625l0 1.1875q0 1.359375 -0.078125 2.140625q-0.140625 1.078125 -0.5 1.90625q-0.421875 0.890625 -1.234375 1.59375q-0.390625 0.328125 -0.984375 0.640625l-1.53125 0zm0.9375 -1.078125q0.421875 0 0.78125 -0.21875q0.375 -0.234375 0.625 -0.625q0.21875 -0.34375 0.390625 -0.859375q0.1875 -0.515625 0.265625 -1.015625q0.203125 -0.953125 0.234375 -1.953125q0.03125 -0.265625 0.03125 -0.75q0 -6.4375 -2.5 -6.71875q-0.140625 0.953125 -0.140625 2.21875q0 1.34375 0.15625 4.6875q0.15625 2.96875 0.15625 4.71875l0 0.515625zm6.145172 1.25q-0.390625 -0.0625 -0.65625 -0.28125q-0.265625 -0.203125 -0.3125 -0.546875l0.234375 -0.359375q0.140625 0 0.40625 0.078125q0.328125 0.0625 0.5 0.0625q0.375 0 0.6875 -0.328125q0.3125 -0.34375 0.453125 -0.90625q0.28125 -1.015625 0.28125 -1.828125q0 -1.40625 -0.890625 -2.96875l-0.234375 -0.40625q-0.40625 -0.703125 -0.6875 -1.25q-0.28125 -0.5625 -0.46875 -1.203125q-0.25 -0.828125 -0.25 -1.65625q0 -0.953125 0.421875 -1.96875q0.21875 -0.484375 0.609375 -0.796875q0.390625 -0.3125 0.890625 -0.3125q0.375 0 0.703125 0.25q0.34375 0.234375 0.34375 0.578125q0 0.203125 -0.15625 0.3125q-0.15625 0.09375 -0.359375 0.09375q-0.234375 0 -0.453125 -0.125q-0.46875 0.015625 -0.75 0.828125q-0.234375 0.75 -0.234375 1.234375q0 0.625 0.1875 1.25q0.203125 0.625 0.5 1.140625l0.46875 0.859375l0.75 1.40625q0.296875 0.59375 0.46875 1.390625q0.1875 0.78125 0.1875 1.59375q0 1.296875 -0.59375 2.46875q-0.296875 0.609375 -0.84375 0.96875q-0.546875 0.359375 -1.203125 0.359375l0 0.0625z" fill-rule="nonzero"/><path fill="#000000" fill-opacity="0.0" d="m402.10236 176.41208l169.41736 0l0 71.08661l-169.41736 0z" fill-rule="evenodd"/><path fill="#160e36" d="m453.90604 206.48582q-0.578125 0 -1.046875 -0.390625q-0.46875 -0.375 -0.8125 -1.03125q-0.625 -1.15625 -0.921875 -3.15625q-0.203125 -1.390625 -0.3125 -3.203125l-0.03125 -1.125l0 -1.15625q-0.015625 -0.5625 -0.015625 -1.34375q0 -1.28125 0.109375 -2.265625q0.078125 -1.015625 0.421875 -2.015625q0.34375 -0.875 0.984375 -1.25q0.390625 -0.171875 0.765625 -0.171875q1.125 0 1.796875 0.90625q0.71875 1.0 0.953125 2.234375q0.34375 1.5 0.390625 2.859375q0.078125 1.515625 0.078125 2.859375l0 1.21875q0 0.359375 -0.109375 1.359375q-0.078125 0.796875 -0.078125 1.34375l0 0.09375q-0.125 0.59375 -0.125 1.40625q0 0.59375 -0.265625 1.234375q-0.25 0.640625 -0.71875 1.078125q-0.46875 0.515625 -1.0625 0.515625zm0.03125 -1.171875q0.4375 0 0.734375 -0.78125q0.25 -0.703125 0.359375 -1.71875q0.125 -1.015625 0.21875 -2.296875q0.03125 -0.546875 0.03125 -1.421875l-0.015625 -1.96875q-0.046875 -1.15625 -0.25 -2.875q-0.171875 -1.46875 -0.640625 -2.609375q-0.21875 -0.53125 -0.546875 -0.828125q-0.3125 -0.296875 -0.671875 -0.296875q-0.53125 0 -0.796875 0.828125q-0.3125 0.875 -0.421875 1.921875q-0.125 1.125 -0.140625 2.15625l-0.03125 0.703125q-0.015625 0.296875 -0.015625 0.8125l0 0.078125q0 1.4375 0.296875 3.515625q0.34375 2.84375 1.0 4.03125q0.421875 0.75 0.890625 0.75zm5.2277527 0.734375q-0.265625 -1.140625 -0.265625 -3.140625l0.03125 -1.90625q0.046875 -0.84375 0.046875 -1.890625q-0.125 -0.296875 -0.125 -0.53125l0 -0.0625q0.203125 -0.40625 0.203125 -1.84375l0.03125 -0.96875q0.015625 -0.484375 0.015625 -1.046875q0 -1.265625 -0.171875 -1.984375q0.0625 -0.296875 0.203125 -0.515625q0.15625 -0.234375 0.375 -0.234375l0.9375 0q0.59375 0 1.046875 0.265625q0.453125 0.265625 0.6875 0.75q0.421875 0.875 0.421875 2.078125q0 0.84375 -0.015625 1.34375q-0.046875 0.609375 -0.21875 1.125q-0.0625 0.28125 -0.1875 0.46875q-0.109375 0.171875 -0.328125 0.4375q-0.296875 0.359375 -0.984375 0.671875q-0.265625 0.15625 -0.71875 0.28125l0 2.28125l0.046875 1.359375l0.046875 0.671875q0.078125 1.1875 0.078125 2.015625q0 0.265625 -0.21875 0.4375q-0.203125 0.1875 -0.484375 0.1875l-0.453125 -0.25zm1.0 -7.578125q1.265625 -0.1875 1.265625 -3.609375q0 -0.609375 -0.0625 -0.953125q-0.0625 -0.265625 -0.171875 -0.421875q-0.109375 -0.15625 -0.328125 -0.265625q-0.234375 -0.125 -0.5 -0.125q0 -0.015625 -0.234375 -0.015625l0 1.203125q0 1.265625 0.015625 2.25q0 1.109375 0.015625 1.453125l0 0.4375l0 0.046875zm5.50885 7.703125q-0.28125 0 -0.5 -0.203125q-0.21875 -0.1875 -0.25 -0.46875l0 -0.546875l0 -0.421875q-0.015625 -0.203125 -0.015625 -0.453125q0 -0.453125 -0.0625 -1.359375l-0.046875 -1.375q0 -1.046875 0.0625 -3.109375q0.09375 -1.859375 0.09375 -3.109375q0 -0.296875 -0.0625 -0.90625q-0.078125 -0.609375 -0.078125 -0.890625q0 -1.515625 0.90625 -1.515625q0.703125 0 1.625 0.28125q0.9375 0.28125 0.9375 0.65625q0 0.21875 -0.1875 0.40625q-0.1875 0.171875 -0.4375 0.28125q-0.890625 -0.328125 -1.625 -0.421875q0.03125 0.3125 0.03125 0.90625q0 0.859375 -0.03125 1.546875q-0.0625 1.015625 -0.0625 1.53125l0.0625 0.34375l0.34375 -0.03125q0.171875 -0.015625 0.421875 -0.015625q1.03125 0 1.03125 0.59375q0 0.234375 -0.203125 0.40625q-0.1875 0.15625 -0.484375 0.15625q-0.375 0 -0.59375 -0.046875l-0.53125 0q0.046875 0.546875 0.046875 1.625q0 1.0625 -0.03125 1.90625q-0.0625 1.3125 -0.0625 1.953125q0 1.1875 0.046875 1.1875l0.703125 -0.015625q0.359375 -0.03125 0.875 -0.03125q0.8125 0 0.8125 0.515625q0 0.296875 -0.265625 0.453125q-0.265625 0.171875 -0.65625 0.171875l-1.8125 0zm10.90097 -0.21875q-0.25 0 -0.390625 -0.140625q-0.125 -0.140625 -0.1875 -0.46875l-0.125 -0.40625l0 -0.046875l0 -0.0625q0 -0.703125 -1.46875 -4.796875q-1.453125 -4.09375 -2.28125 -6.0625l0 10.734375l0.078125 0.140625q0.015625 0.046875 0.078125 0.15625q0.078125 0.09375 0.078125 0.203125q0 0.28125 -0.203125 0.484375q-0.1875 0.1875 -0.46875 0.1875q-0.671875 0 -0.671875 -1.3125l-0.03125 -3.640625q-0.015625 -1.640625 -0.015625 -3.671875q0 -0.6875 0.0625 -1.984375q0.0625 -1.34375 0.0625 -1.984375q0 -1.0 0.765625 -1.578125l0 0.125q0.125 -0.03125 0.171875 -0.03125q0.5 0 1.234375 1.703125q0.609375 1.359375 1.078125 2.875q0.484375 1.515625 1.265625 4.3125l0.21875 0.765625q0.5 1.734375 0.75 2.46875q0.421875 -4.578125 0.421875 -10.828125l0 -0.28125q-0.015625 -0.125 -0.015625 -0.265625q0 -0.640625 0.515625 -0.640625q0.296875 0 0.453125 0.234375q0.15625 0.234375 0.15625 0.59375l0 1.59375q-0.046875 3.28125 -0.265625 7.125q-0.203125 3.84375 -0.5 4.328125q-0.625 0.171875 -0.765625 0.171875zm9.494263 0.40625q-0.765625 0 -1.328125 -0.28125q-0.34375 -0.1875 -0.34375 -0.4375q0 -0.265625 0.125 -0.421875q0.140625 -0.15625 0.375 -0.15625q0.203125 0 0.609375 0.171875q0.453125 0.171875 0.5625 0.171875q0.40625 0 0.734375 -0.34375q0.328125 -0.359375 0.515625 -0.9375q0.390625 -1.078125 0.390625 -1.921875q0 -0.921875 -0.296875 -1.9375q-0.28125 -1.015625 -0.765625 -1.96875l-0.34375 -0.6875q-0.53125 -1.0625 -0.828125 -1.671875q-0.28125 -0.625 -0.5 -1.34375q-0.3125 -1.03125 -0.3125 -1.984375q0 -0.78125 0.265625 -1.453125q0.265625 -0.6875 0.796875 -1.15625q0.53125 -0.515625 1.3125 -0.515625q0.390625 0 0.75 0.234375q0.359375 0.21875 0.515625 0.5625l-0.359375 0.4375q-0.5625 0 -0.828125 -0.203125q-0.390625 0.046875 -0.6875 0.375q-0.28125 0.328125 -0.421875 0.75q-0.140625 0.40625 -0.140625 0.8125q0 0.8125 0.21875 1.65625q0.234375 0.84375 0.59375 1.59375l1.5 2.984375q0.359375 0.765625 0.5625 1.734375q0.21875 0.953125 0.21875 1.90625q0 1.40625 -0.671875 2.640625q-0.375 0.640625 -0.953125 1.015625q-0.5625 0.375 -1.265625 0.375zm7.844635 -0.0625q-0.5625 0 -1.03125 -0.359375q-0.46875 -0.34375 -0.765625 -0.9375q-0.609375 -1.3125 -0.765625 -2.84375q-0.1875 -1.453125 -0.1875 -2.796875q0 -0.25 0.015625 -0.421875l0 -0.390625q0 -0.09375 -0.015625 -0.09375l0 -0.390625l0.015625 -1.5q0.03125 -0.671875 0.171875 -2.171875q0.109375 -1.015625 0.5 -1.984375q0.140625 -0.421875 0.375 -0.640625q0.234375 -0.234375 0.53125 -0.234375q0.859375 0 1.53125 0.3125q0.6875 0.3125 1.15625 0.859375q0.4375 0.546875 0.734375 1.328125q0.296875 0.765625 0.421875 1.640625q0.125 0.890625 0.125 1.90625l0 0.171875q0 0.65625 0.03125 1.1875l0.015625 1.21875q0 6.140625 -2.859375 6.140625zm-0.078125 -0.890625q0.375 0 0.6875 -0.3125q0.328125 -0.3125 0.5 -0.84375q0.40625 -1.09375 0.484375 -2.34375q0.109375 -1.09375 0.109375 -1.875q0 -0.96875 -0.140625 -2.515625q-0.140625 -1.65625 -0.140625 -2.453125l0 -0.390625q-0.03125 -0.8125 -0.53125 -1.40625q-0.5 -0.59375 -1.234375 -0.59375q-0.71875 0 -0.953125 0.828125q-0.21875 0.65625 -0.21875 1.703125q0 0.40625 0.015625 0.6875l0 0.578125l-0.03125 0.96875q-0.046875 0.453125 -0.046875 0.984375q0 1.15625 0.0625 2.28125q0.09375 1.609375 0.421875 3.125q0.34375 1.578125 1.015625 1.578125zm7.5375366 0.796875q-0.5 0 -0.90625 -0.21875q-0.40625 -0.21875 -0.671875 -0.640625q-0.5 -0.90625 -0.65625 -2.03125q-0.15625 -0.984375 -0.15625 -2.34375q-0.0625 -2.3125 -0.0625 -5.640625l-0.015625 -1.640625q-0.015625 -0.125 -0.015625 -0.421875q-0.046875 -0.8125 -0.046875 -0.984375q0.1875 -0.453125 0.453125 -0.453125q0.25 0 0.453125 0.390625q0.203125 0.390625 0.203125 0.828125l0 5.8125q0 0.84375 0.140625 2.25q0.15625 1.75 0.15625 2.265625q0 1.578125 1.34375 1.578125q1.53125 0 1.53125 -11.46875l0 -1.203125l0 -0.1875q-0.015625 -0.0625 -0.015625 -0.171875q0 -0.25 0.109375 -0.359375q0.125 -0.125 0.46875 -0.125q0.265625 0 0.421875 0.15625q0.171875 0.15625 0.21875 0.375q0.015625 0.125 0.015625 0.484375q0 0.34375 -0.0625 1.09375q-0.078125 0.609375 -0.078125 1.0625q0 0.484375 -0.046875 0.875l-0.046875 0.890625l0 0.171875q0.015625 0.09375 0.015625 0.1875q0 9.46875 -2.75 9.46875zm9.152618 0.046875q-0.46875 0 -0.84375 -1.015625q-0.453125 -1.109375 -0.671875 -2.28125l-0.140625 -0.734375q-0.625 -3.046875 -0.796875 -3.46875l-0.25 0q0 0.609375 -0.03125 1.125l0 1.171875q0 2.859375 0.40625 4.453125l-0.234375 0.578125l-0.59375 0l-0.28125 -0.3125l0.03125 -1.4375q0 -1.90625 -0.203125 -5.8125q-0.15625 -4.15625 -0.15625 -5.828125q0 -1.015625 0.703125 -1.015625q1.140625 0 1.875 0.59375q0.734375 0.59375 0.734375 1.65625l0 1.5q0 0.3125 -0.109375 0.734375q-0.09375 0.40625 -0.21875 0.671875l-0.40625 0.765625l-0.34375 0.640625l0.109375 0.515625l0.296875 1.515625q0.296875 1.640625 0.5625 2.671875q0.28125 1.015625 0.6875 1.84375l0.140625 0.25q0.203125 0.4375 0.203125 0.6875q0 0.21875 -0.125 0.375q-0.125 0.15625 -0.34375 0.15625zm-2.625 -8.546875q0.46875 -0.234375 0.796875 -1.28125q0.34375 -1.0625 0.34375 -1.96875q0 -0.671875 -0.171875 -1.28125q-0.109375 -0.328125 -0.359375 -0.515625q-0.25 -0.1875 -0.609375 -0.1875l-0.03125 0.109375l-0.046875 0.203125l0.046875 2.515625q0.03125 1.109375 0.03125 2.40625zm8.04184 8.484375q-0.46875 0 -1.0 -0.140625q-0.515625 -0.140625 -0.78125 -0.3125q-1.4375 -0.90625 -1.4375 -5.0l0 -0.578125l0 -0.671875l0 -0.5q0 -0.859375 0.015625 -1.53125q0.03125 -0.671875 0.09375 -1.453125q0.0625 -0.84375 0.1875 -1.359375q0.125 -0.515625 0.421875 -1.1875q0.265625 -0.609375 0.640625 -0.953125q0.375 -0.34375 0.96875 -0.578125q0.53125 -0.234375 1.3125 -0.234375q0.328125 0 0.5 0.15625q0.171875 0.140625 0.171875 0.375q0 0.21875 -0.140625 0.390625q-0.140625 0.171875 -0.328125 0.1875l-1.0 0q-0.4375 0 -0.765625 0.53125q-0.3125 0.53125 -0.4375 1.390625q-0.28125 1.578125 -0.28125 2.5625l0 0.09375l-0.03125 2.046875q-0.046875 0.921875 -0.046875 2.078125q0 0.8125 0.0625 1.3125q0.109375 0.78125 0.359375 1.28125q0.265625 0.578125 0.875 0.84375q0.328125 0.125 0.703125 0.125q0.234375 0 0.46875 -0.171875q0.28125 0 0.453125 0.125q0.1875 0.109375 0.1875 0.34375q0 0.828125 -1.171875 0.828125zm4.0755615 -0.015625q-0.28125 0 -0.5 -0.203125q-0.21875 -0.1875 -0.25 -0.46875l0 -0.546875l0 -0.421875q-0.015625 -0.203125 -0.015625 -0.453125q0 -0.453125 -0.0625 -1.359375l-0.046875 -1.375q0 -1.046875 0.0625 -3.109375q0.09375 -1.859375 0.09375 -3.109375q0 -0.296875 -0.0625 -0.90625q-0.078125 -0.609375 -0.078125 -0.890625q0 -1.515625 0.90625 -1.515625q0.703125 0 1.625 0.28125q0.9375 0.28125 0.9375 0.65625q0 0.21875 -0.1875 0.40625q-0.1875 0.171875 -0.4375 0.28125q-0.890625 -0.328125 -1.625 -0.421875q0.03125 0.3125 0.03125 0.90625q0 0.859375 -0.03125 1.546875q-0.0625 1.015625 -0.0625 1.53125l0.0625 0.34375l0.34375 -0.03125q0.171875 -0.015625 0.421875 -0.015625q1.03125 0 1.03125 0.59375q0 0.234375 -0.203125 0.40625q-0.1875 0.15625 -0.484375 0.15625q-0.375 0 -0.59375 -0.046875l-0.53125 0q0.046875 0.546875 0.046875 1.625q0 1.0625 -0.03125 1.90625q-0.0625 1.3125 -0.0625 1.953125q0 1.1875 0.046875 1.1875l0.703125 -0.015625q0.359375 -0.03125 0.875 -0.03125q0.8125 0 0.8125 0.515625q0 0.296875 -0.265625 0.453125q-0.265625 0.171875 -0.65625 0.171875l-1.8125 0z" fill-rule="nonzero"/><path fill="#000000" fill-opacity="0.0" d="m579.15485 390.91864l142.86615 0l0 71.08661l-142.86615 0z" fill-rule="evenodd"/><path fill="#00827d" d="m590.4361 420.5705q-0.984375 0 -0.984375 -0.53125l0.046875 -2.625l0.046875 -2.625q0 -1.421875 -0.0625 -4.328125q-0.0625 -2.875 -0.0625 -4.328125l0 -0.125q0 -0.5625 0.09375 -1.03125q0.140625 -0.578125 0.6875 -0.578125q1.5 0 2.375 0.96875q0.875 0.953125 0.875 2.53125q0 0.96875 -0.515625 2.015625q-0.515625 1.03125 -1.21875 1.546875q1.234375 0.828125 1.8125 2.140625q0.59375 1.3125 0.59375 2.890625q0 0.75 -0.515625 1.859375q-0.609375 1.328125 -1.671875 1.890625q-0.640625 0.328125 -1.40625 0.328125l-0.09375 0zm0.21875 -9.421875q0.546875 -0.140625 0.9375 -0.921875q0.3125 -0.59375 0.59375 -1.453125q0.0625 -0.234375 0.21875 -0.59375l0 -0.75q0 -0.640625 -0.46875 -1.234375q-0.46875 -0.59375 -1.078125 -0.59375q-0.296875 0 -0.296875 0.65625q0 1.40625 0.046875 2.515625l0.046875 2.375zm0.078125 8.3125q1.046875 -0.15625 1.65625 -0.953125q0.625 -0.8125 0.625 -1.953125q0 -0.96875 -0.15625 -1.796875q-0.15625 -0.828125 -0.421875 -1.25q-0.234375 -0.40625 -0.46875 -0.671875q-0.234375 -0.28125 -0.40625 -0.375l-0.171875 -0.0625l-0.765625 0q0.109375 2.453125 0.109375 7.0625zm6.4002075 1.21875q-0.28125 0 -0.5 -0.203125q-0.21875 -0.1875 -0.25 -0.46875l0 -0.546875l0 -0.421875q-0.015625 -0.203125 -0.015625 -0.453125q0 -0.453125 -0.0625 -1.359375l-0.046875 -1.375q0 -1.046875 0.0625 -3.109375q0.09375 -1.859375 0.09375 -3.109375q0 -0.296875 -0.0625 -0.90625q-0.078125 -0.609375 -0.078125 -0.890625q0 -1.515625 0.90625 -1.515625q0.703125 0 1.625 0.28125q0.9375 0.28125 0.9375 0.65625q0 0.21875 -0.1875 0.40625q-0.1875 0.171875 -0.4375 0.28125q-0.890625 -0.328125 -1.625 -0.421875q0.03125 0.3125 0.03125 0.90625q0 0.859375 -0.03125 1.546875q-0.0625 1.015625 -0.0625 1.53125l0.0625 0.34375l0.34375 -0.03125q0.171875 -0.015625 0.421875 -0.015625q1.03125 0 1.03125 0.59375q0 0.234375 -0.203125 0.40625q-0.1875 0.15625 -0.484375 0.15625q-0.375 0 -0.59375 -0.046875l-0.53125 0q0.046875 0.546875 0.046875 1.625q0 1.0625 -0.03125 1.90625q-0.0625 1.3125 -0.0625 1.953125q0 1.1875 0.046875 1.1875l0.703125 -0.015625q0.359375 -0.03125 0.875 -0.03125q0.8125 0 0.8125 0.515625q0 0.296875 -0.265625 0.453125q-0.265625 0.171875 -0.65625 0.171875l-1.8125 0zm5.46344 0.015625q-0.390625 -0.0625 -0.65625 -0.28125q-0.265625 -0.203125 -0.3125 -0.546875l0.234375 -0.359375q0.140625 0 0.40625 0.078125q0.328125 0.0625 0.5 0.0625q0.375 0 0.6875 -0.328125q0.3125 -0.34375 0.453125 -0.90625q0.28125 -1.015625 0.28125 -1.828125q0 -1.40625 -0.890625 -2.96875l-0.234375 -0.40625q-0.40625 -0.703125 -0.6875 -1.25q-0.28125 -0.5625 -0.46875 -1.203125q-0.25 -0.828125 -0.25 -1.65625q0 -0.953125 0.421875 -1.96875q0.21875 -0.484375 0.609375 -0.796875q0.390625 -0.3125 0.890625 -0.3125q0.375 0 0.703125 0.25q0.34375 0.234375 0.34375 0.578125q0 0.203125 -0.15625 0.3125q-0.15625 0.09375 -0.359375 0.09375q-0.234375 0 -0.453125 -0.125q-0.46875 0.015625 -0.75 0.828125q-0.234375 0.75 -0.234375 1.234375q0 0.625 0.1875 1.25q0.203125 0.625 0.5 1.140625l0.46875 0.859375l0.75 1.40625q0.296875 0.59375 0.46875 1.390625q0.1875 0.78125 0.1875 1.59375q0 1.296875 -0.59375 2.46875q-0.296875 0.609375 -0.84375 0.96875q-0.546875 0.359375 -1.203125 0.359375l0 0.0625zm6.0805664 -0.640625l-0.03125 -0.828125q-0.015625 -0.359375 -0.015625 -0.8125l0.015625 -0.71875q-0.0625 -0.234375 -0.328125 -4.671875q-0.25 -4.4375 -0.28125 -5.703125q-1.234375 -0.03125 -1.578125 -0.25q-0.234375 -0.171875 -0.234375 -0.390625q0 -0.171875 0.21875 -0.296875q0.21875 -0.140625 0.453125 -0.140625q0.609375 0 1.453125 0.078125q0.8125 0.109375 1.453125 0.109375l0.171875 0l0.171875 0q0.65625 0 0.65625 0.515625q0 0.25 -0.21875 0.421875q-0.203125 0.15625 -0.484375 0.15625q-0.1875 0 -0.546875 -0.078125l-0.4375 -0.078125l-0.015625 0.109375l-0.015625 0.109375q0 1.890625 0.359375 6.046875q0.34375 3.90625 0.34375 6.0625q0 0.25 -0.234375 0.453125q-0.21875 0.1875 -0.5 0.1875l-0.375 -0.28125zm8.863098 0.453125q-0.234375 0 -0.375 -0.203125q-0.125 -0.203125 -0.125 -0.5l0.03125 -3.59375q0.0625 -2.59375 0.0625 -4.03125q0 -4.96875 -0.546875 -7.609375q0.3125 -0.484375 0.8125 -0.484375q0.78125 0 1.4375 0.359375q0.65625 0.34375 1.078125 0.9375q0.828125 1.234375 0.828125 2.765625q0 1.609375 -0.6875 2.875q-0.671875 1.25 -1.984375 1.953125l0.046875 2.15625l0.046875 1.125q0.015625 0.359375 0.015625 1.046875q0.0625 1.4375 0.0625 2.328125q0 0.40625 -0.171875 0.640625q-0.15625 0.234375 -0.53125 0.234375zm0.5 -8.5625q0.828125 -0.78125 1.21875 -1.640625q0.390625 -0.875 0.390625 -1.953125l0 -0.03125q0 -0.484375 -0.09375 -1.234375q-0.0625 -0.25 -0.234375 -0.5q-0.171875 -0.265625 -0.203125 -0.3125q-0.140625 -0.203125 -0.78125 -0.65625l-0.5625 -0.40625q0 1.09375 0.140625 3.375l0.125 3.359375zm8.673767 8.8125q-0.46875 0 -0.84375 -1.015625q-0.453125 -1.109375 -0.671875 -2.28125l-0.140625 -0.734375q-0.625 -3.046875 -0.796875 -3.46875l-0.25 0q0 0.609375 -0.03125 1.125l0 1.171875q0 2.859375 0.40625 4.453125l-0.234375 0.578125l-0.59375 0l-0.28125 -0.3125l0.03125 -1.4375q0 -1.90625 -0.203125 -5.8125q-0.15625 -4.15625 -0.15625 -5.828125q0 -1.015625 0.703125 -1.015625q1.140625 0 1.875 0.59375q0.734375 0.59375 0.734375 1.65625l0 1.5q0 0.3125 -0.109375 0.734375q-0.09375 0.40625 -0.21875 0.671875l-0.40625 0.765625l-0.34375 0.640625l0.109375 0.515625l0.296875 1.515625q0.296875 1.640625 0.5625 2.671875q0.28125 1.015625 0.6875 1.84375l0.140625 0.25q0.203125 0.4375 0.203125 0.6875q0 0.21875 -0.125 0.375q-0.125 0.15625 -0.34375 0.15625zm-2.625 -8.546875q0.46875 -0.234375 0.796875 -1.28125q0.34375 -1.0625 0.34375 -1.96875q0 -0.671875 -0.171875 -1.28125q-0.109375 -0.328125 -0.359375 -0.515625q-0.25 -0.1875 -0.609375 -0.1875l-0.03125 0.109375l-0.046875 0.203125l0.046875 2.515625q0.03125 1.109375 0.03125 2.40625zm9.385559 8.375q-0.484375 0 -0.71875 -0.15625q-0.234375 -0.140625 -0.234375 -0.546875q0 -0.640625 -0.21875 -2.171875l-0.078125 -0.453125l-2.109375 -0.3125q-0.140625 0.484375 -0.375 1.984375q-0.125 1.046875 -0.40625 1.390625q-0.140625 0.1875 -0.421875 0.1875q-0.25 0 -0.46875 -0.15625q-0.21875 -0.171875 -0.21875 -0.40625l0.046875 -0.09375l0.015625 -0.09375q1.421875 -5.484375 2.140625 -10.8125q0 -0.078125 0.015625 -0.28125q0.03125 -0.203125 0.046875 -0.59375q0.0625 -0.78125 0.140625 -1.25q0.078125 -0.484375 0.25 -0.71875l0.71875 0q0.296875 0 0.5 0.140625q0.21875 0.140625 0.21875 0.40625q0 1.609375 0.453125 4.8125q0.421875 3.28125 0.421875 4.609375q0 0.125 0.109375 0.65625q0.109375 0.5 0.109375 0.640625q0 0.15625 0.21875 1.28125q0.1875 1.03125 0.1875 1.328125l0 0.015625q0 0.46875 -0.34375 0.59375zm-1.40625 -4.09375q-0.0625 -0.3125 -0.0625 -0.78125q0 -1.921875 -0.34375 -4.90625l-0.21875 -2.21875q-0.90625 5.015625 -1.25 7.5625q0.3125 0.21875 1.875 0.34375zm6.439636 4.203125q-0.46875 0 -1.0 -0.140625q-0.515625 -0.140625 -0.78125 -0.3125q-1.4375 -0.90625 -1.4375 -5.0l0 -0.578125l0 -0.671875l0 -0.5q0 -0.859375 0.015625 -1.53125q0.03125 -0.671875 0.09375 -1.453125q0.0625 -0.84375 0.1875 -1.359375q0.125 -0.515625 0.421875 -1.1875q0.265625 -0.609375 0.640625 -0.953125q0.375 -0.34375 0.96875 -0.578125q0.53125 -0.234375 1.3125 -0.234375q0.328125 0 0.5 0.15625q0.171875 0.140625 0.171875 0.375q0 0.21875 -0.140625 0.390625q-0.140625 0.171875 -0.328125 0.1875l-1.0 0q-0.4375 0 -0.765625 0.53125q-0.3125 0.53125 -0.4375 1.390625q-0.28125 1.578125 -0.28125 2.5625l0 0.09375l-0.03125 2.046875q-0.046875 0.921875 -0.046875 2.078125q0 0.8125 0.0625 1.3125q0.109375 0.78125 0.359375 1.28125q0.265625 0.578125 0.875 0.84375q0.328125 0.125 0.703125 0.125q0.234375 0 0.46875 -0.171875q0.28125 0 0.453125 0.125q0.1875 0.109375 0.1875 0.34375q0 0.828125 -1.171875 0.828125zm4.2943115 -0.640625l-0.03125 -0.828125q-0.015625 -0.359375 -0.015625 -0.8125l0.015625 -0.71875q-0.0625 -0.234375 -0.328125 -4.671875q-0.25 -4.4375 -0.28125 -5.703125q-1.234375 -0.03125 -1.578125 -0.25q-0.234375 -0.171875 -0.234375 -0.390625q0 -0.171875 0.21875 -0.296875q0.21875 -0.140625 0.453125 -0.140625q0.609375 0 1.453125 0.078125q0.8125 0.109375 1.453125 0.109375l0.171875 0l0.171875 0q0.65625 0 0.65625 0.515625q0 0.25 -0.21875 0.421875q-0.203125 0.15625 -0.484375 0.15625q-0.1875 0 -0.546875 -0.078125l-0.4375 -0.078125l-0.015625 0.109375l-0.015625 0.109375q0 1.890625 0.359375 6.046875q0.34375 3.90625 0.34375 6.0625q0 0.25 -0.234375 0.453125q-0.21875 0.1875 -0.5 0.1875l-0.375 -0.28125zm5.335022 0.328125q-1.859375 0 -1.859375 -0.640625q0 -0.515625 0.65625 -0.515625l0.234375 0l0.21875 0.015625q0.171875 0 0.234375 -0.09375q0.0625 -0.109375 0.0625 -0.390625q0 -0.359375 -0.046875 -1.125q-0.0625 -0.515625 -0.140625 -1.84375q-0.203125 -3.265625 -0.203125 -4.921875q0 -0.59375 0.03125 -1.09375l0.015625 -1.078125q0 -0.703125 -0.0625 -1.171875q-0.34375 0.078125 -0.484375 0.078125q-0.515625 0 -0.515625 -0.515625q0 -0.25 0.3125 -0.4375q0.328125 -0.203125 0.8125 -0.28125q0.859375 -0.171875 1.515625 -0.171875q0.25 0 0.4375 0.1875q0.1875 0.171875 0.1875 0.40625q0 0.234375 -0.140625 0.40625q-0.140625 0.171875 -0.359375 0.171875q-0.125 0 -0.203125 -0.015625l-0.171875 0q-0.21875 0 -0.3125 0.09375q-0.09375 0.09375 -0.09375 0.34375q0 2.078125 0.25 6.234375q0.046875 0.765625 0.171875 2.265625q0.109375 0.96875 0.109375 2.0l0 0.8125q0.125 -0.03125 0.421875 -0.03125q0.890625 0 0.890625 0.75l0 0.125l-0.53125 0.375q-0.015625 0 -0.140625 0.015625q-0.109375 0 -0.4375 0q-0.671875 0.046875 -0.859375 0.046875zm6.6014404 0.3125q-0.46875 0 -1.0 -0.140625q-0.515625 -0.140625 -0.78125 -0.3125q-1.4375 -0.90625 -1.4375 -5.0l0 -0.578125l0 -0.671875l0 -0.5q0 -0.859375 0.015625 -1.53125q0.03125 -0.671875 0.09375 -1.453125q0.0625 -0.84375 0.1875 -1.359375q0.125 -0.515625 0.421875 -1.1875q0.265625 -0.609375 0.640625 -0.953125q0.375 -0.34375 0.96875 -0.578125q0.53125 -0.234375 1.3125 -0.234375q0.328125 0 0.5 0.15625q0.171875 0.140625 0.171875 0.375q0 0.21875 -0.140625 0.390625q-0.140625 0.171875 -0.328125 0.1875l-1.0 0q-0.4375 0 -0.765625 0.53125q-0.3125 0.53125 -0.4375 1.390625q-0.28125 1.578125 -0.28125 2.5625l0 0.09375l-0.03125 2.046875q-0.046875 0.921875 -0.046875 2.078125q0 0.8125 0.0625 1.3125q0.109375 0.78125 0.359375 1.28125q0.265625 0.578125 0.875 0.84375q0.328125 0.125 0.703125 0.125q0.234375 0 0.46875 -0.171875q0.28125 0 0.453125 0.125q0.1875 0.109375 0.1875 0.34375q0 0.828125 -1.171875 0.828125zm4.0755615 -0.015625q-0.28125 0 -0.5 -0.203125q-0.21875 -0.1875 -0.25 -0.46875l0 -0.546875l0 -0.421875q-0.015625 -0.203125 -0.015625 -0.453125q0 -0.453125 -0.0625 -1.359375l-0.046875 -1.375q0 -1.046875 0.0625 -3.109375q0.09375 -1.859375 0.09375 -3.109375q0 -0.296875 -0.0625 -0.90625q-0.078125 -0.609375 -0.078125 -0.890625q0 -1.515625 0.90625 -1.515625q0.703125 0 1.625 0.28125q0.9375 0.28125 0.9375 0.65625q0 0.21875 -0.1875 0.40625q-0.1875 0.171875 -0.4375 0.28125q-0.890625 -0.328125 -1.625 -0.421875q0.03125 0.3125 0.03125 0.90625q0 0.859375 -0.03125 1.546875q-0.0625 1.015625 -0.0625 1.53125l0.0625 0.34375l0.34375 -0.03125q0.171875 -0.015625 0.421875 -0.015625q1.03125 0 1.03125 0.59375q0 0.234375 -0.203125 0.40625q-0.1875 0.15625 -0.484375 0.15625q-0.375 0 -0.59375 -0.046875l-0.53125 0q0.046875 0.546875 0.046875 1.625q0 1.0625 -0.03125 1.90625q-0.0625 1.3125 -0.0625 1.953125q0 1.1875 0.046875 1.1875l0.703125 -0.015625q0.359375 -0.03125 0.875 -0.03125q0.8125 0 0.8125 0.515625q0 0.296875 -0.265625 0.453125q-0.265625 0.171875 -0.65625 0.171875l-1.8125 0z" fill-rule="nonzero"/></g></svg>